HIERARCHY
ROOT Hips
{
	OFFSET 0.000000 71.427986 0.000000
	CHANNELS 6 Xposition Yposition Zposition Xrotation Yrotation Zrotation
	JOINT Pelvis
	{
		OFFSET 0.000000 0.000000 0.000000
		CHANNELS 3 Xrotation Yrotation Zrotation
		JOINT LeftUpLeg
		{
			OFFSET 6.797100 -2.508499 -1.318700
			CHANNELS 3 Xrotation Yrotation Zrotation
			JOINT LeftLeg
			{
				OFFSET 0.069008 -29.241863 0.690200
				CHANNELS 3 Xrotation Yrotation Zrotation
				JOINT LeftFoot
				{
					OFFSET -0.069008 -29.568123 -0.266800
					CHANNELS 3 Xrotation Yrotation Zrotation
					JOINT LeftToeBase
					{
						OFFSET 3.145500 -8.631000 16.059900
						CHANNELS 3 Xrotation Yrotation Zrotation
						End Site
						{
							OFFSET 0.000000 18.501587 0.000000
						}
					}
				}
			}
			JOINT Left_ShortSleeve
			{
				OFFSET 0.265923 -10.480953 1.153800
				CHANNELS 3 Xrotation Yrotation Zrotation
				End Site
				{
					OFFSET 1.725763 19.823879 0.000000
				}
			}
		}
		JOINT RightUpLeg
		{
			OFFSET -6.797100 -2.508499 -1.318700
			CHANNELS 3 Xrotation Yrotation Zrotation
			JOINT RightLeg
			{
				OFFSET -0.082453 -29.241932 0.688000
				CHANNELS 3 Xrotation Yrotation Zrotation
				JOINT RightFoot
				{
					OFFSET 0.082453 -29.568058 -0.264600
					CHANNELS 3 Xrotation Yrotation Zrotation
					JOINT RightToeBase
					{
						OFFSET -3.115300 -8.682800 16.113400
						CHANNELS 3 Xrotation Yrotation Zrotation
						End Site
						{
							OFFSET 0.000000 18.567114 0.000000
						}
					}
				}
			}
			JOINT Right_ShortSleeve
			{
				OFFSET -0.265923 -10.480953 1.153800
				CHANNELS 3 Xrotation Yrotation Zrotation
				End Site
				{
					OFFSET -1.725766 19.823910 0.000000
				}
			}
		}
	}
	JOINT Spine
	{
		OFFSET 0.000000 13.368103 0.470500
		CHANNELS 3 Xrotation Yrotation Zrotation
		JOINT Spine1
		{
			OFFSET 0.147000 13.837402 0.538800
			CHANNELS 3 Xrotation Yrotation Zrotation
			JOINT Spine2
			{
				OFFSET 0.168000 16.242897 -1.435500
				CHANNELS 3 Xrotation Yrotation Zrotation
				JOINT Neck
				{
					OFFSET 0.217200 18.631500 -1.679100
					CHANNELS 3 Xrotation Yrotation Zrotation
					JOINT Head
					{
						OFFSET 0.000000 6.599396 1.385900
						CHANNELS 3 Xrotation Yrotation Zrotation
						JOINT Hat
						{
							OFFSET -0.532200 27.220596 -10.096100
							CHANNELS 3 Xrotation Yrotation Zrotation
							End Site
							{
								OFFSET 0.000000 22.029861 0.000000
							}
						}
						JOINT HairD
						{
							OFFSET -10.777400 17.437393 -1.325900
							CHANNELS 3 Xrotation Yrotation Zrotation
							JOINT HairD1
							{
								OFFSET -3.290299 -11.051193 1.062200
								CHANNELS 3 Xrotation Yrotation Zrotation
								End Site
								{
									OFFSET 0.000000 11.579437 0.000000
								}
							}
						}
						JOINT HairB
						{
							OFFSET -10.777400 17.437393 1.467900
							CHANNELS 3 Xrotation Yrotation Zrotation
							JOINT HairB1
							{
								OFFSET -1.561200 -12.956299 3.590200
								CHANNELS 3 Xrotation Yrotation Zrotation
								End Site
								{
									OFFSET 0.000000 13.534866 0.000000
								}
							}
						}
						JOINT HairA
						{
							OFFSET 9.713100 17.437393 1.467900
							CHANNELS 3 Xrotation Yrotation Zrotation
							JOINT HairA1
							{
								OFFSET 1.561200 -12.956299 3.590200
								CHANNELS 3 Xrotation Yrotation Zrotation
								End Site
								{
									OFFSET 0.000000 13.534866 0.000000
								}
							}
						}
						JOINT HairC
						{
							OFFSET 9.713100 17.437393 -1.325900
							CHANNELS 3 Xrotation Yrotation Zrotation
							JOINT HairC1
							{
								OFFSET 3.290300 -11.051193 1.062200
								CHANNELS 3 Xrotation Yrotation Zrotation
								End Site
								{
									OFFSET 0.000000 11.579437 0.000000
								}
							}
						}
					}
				}
				JOINT LeftShoulder
				{
					OFFSET 5.101800 15.108002 -2.763700
					CHANNELS 3 Xrotation Yrotation Zrotation
					JOINT LeftArm
					{
						OFFSET 9.825497 2.506317 -1.597400
						CHANNELS 3 Xrotation Yrotation Zrotation
						JOINT LeftForeArm
						{
							OFFSET 21.966244 0.000000 0.000000
							CHANNELS 3 Xrotation Yrotation Zrotation
							JOINT LeftHand
							{
								OFFSET 33.879036 0.000000 0.000000
								CHANNELS 3 Xrotation Yrotation Zrotation
								JOINT LeftHandThumb1
								{
									OFFSET 6.715286 -2.359680 3.363841
									CHANNELS 3 Xrotation Yrotation Zrotation
									JOINT LeftHandThumb2
									{
										OFFSET 2.507072 -1.447464 1.447461
										CHANNELS 3 Xrotation Yrotation Zrotation
										JOINT LeftHandThumb3
										{
											OFFSET 2.898338 -1.673355 1.673357
											CHANNELS 3 Xrotation Yrotation Zrotation
											End Site
											{
												OFFSET -0.295959 3.727692 -0.131651
											}
										}
									}
								}
								JOINT LeftHandIndex1
								{
									OFFSET 14.190811 -0.254547 3.840278
									CHANNELS 3 Xrotation Yrotation Zrotation
									JOINT LeftHandIndex2
									{
										OFFSET 3.551727 0.000000 -0.000000
										CHANNELS 3 Xrotation Yrotation Zrotation
										JOINT LeftHandIndex3
										{
											OFFSET 2.894196 0.000000 0.000000
											CHANNELS 3 Xrotation Yrotation Zrotation
											End Site
											{
												OFFSET -1.000603 2.690872 0.366626
											}
										}
									}
								}
								JOINT LeftHandMiddle1
								{
									OFFSET 13.776489 0.000000 0.000000
									CHANNELS 3 Xrotation Yrotation Zrotation
									JOINT LeftHandMiddle2
									{
										OFFSET 3.438232 0.000000 0.000000
										CHANNELS 3 Xrotation Yrotation Zrotation
										JOINT LeftHandMiddle3
										{
											OFFSET 3.691551 0.000000 0.000000
											CHANNELS 3 Xrotation Yrotation Zrotation
											End Site
											{
												OFFSET -1.082298 3.499527 0.457670
											}
										}
									}
								}
								JOINT LeftHandRing1
								{
									OFFSET 13.966164 -0.268127 -3.067488
									CHANNELS 3 Xrotation Yrotation Zrotation
									JOINT LeftHandRing2
									{
										OFFSET 3.162567 0.000000 0.000000
										CHANNELS 3 Xrotation Yrotation Zrotation
										JOINT LeftHandRing3
										{
											OFFSET 3.324348 0.000000 0.000000
											CHANNELS 3 Xrotation Yrotation Zrotation
											End Site
											{
												OFFSET -0.861900 3.184998 0.405154
											}
										}
									}
								}
								JOINT LeftHandPinky1
								{
									OFFSET 13.131393 -0.168503 -5.746925
									CHANNELS 3 Xrotation Yrotation Zrotation
									JOINT LeftHandPinky2
									{
										OFFSET 2.849182 0.000000 0.000000
										CHANNELS 3 Xrotation Yrotation Zrotation
										JOINT LeftHandPinky3
										{
											OFFSET 2.805038 0.000000 0.000000
											CHANNELS 3 Xrotation Yrotation Zrotation
											End Site
											{
												OFFSET -0.882500 2.642609 0.325652
											}
										}
									}
								}
							}
							JOINT Left_Sleeve
							{
								OFFSET 6.592125 -0.646545 0.805568
								CHANNELS 3 Xrotation Yrotation Zrotation
								End Site
								{
									OFFSET -0.000179 20.275787 -0.000000
								}
							}
						}
					}
				}
				JOINT RightShoulder
				{
					OFFSET -5.731700 15.108002 -2.763700
					CHANNELS 3 Xrotation Yrotation Zrotation
					JOINT RightArm
					{
						OFFSET -9.825497 2.506317 -1.597400
						CHANNELS 3 Xrotation Yrotation Zrotation
						JOINT RightForeArm
						{
							OFFSET -21.966242 0.000000 0.000000
							CHANNELS 3 Xrotation Yrotation Zrotation
							JOINT RightHand
							{
								OFFSET -33.879032 0.000000 0.000000
								CHANNELS 3 Xrotation Yrotation Zrotation
								JOINT RightHandThumb1
								{
									OFFSET -6.715286 -2.359680 3.363841
									CHANNELS 3 Xrotation Yrotation Zrotation
									JOINT RightHandThumb2
									{
										OFFSET -2.507072 -1.447464 1.447461
										CHANNELS 3 Xrotation Yrotation Zrotation
										JOINT RightHandThumb3
										{
											OFFSET -2.898338 -1.673355 1.673357
											CHANNELS 3 Xrotation Yrotation Zrotation
											End Site
											{
												OFFSET 0.295959 3.727692 -0.131651
											}
										}
									}
								}
								JOINT RightHandIndex1
								{
									OFFSET -14.190811 -0.254547 3.840278
									CHANNELS 3 Xrotation Yrotation Zrotation
									JOINT RightHandIndex2
									{
										OFFSET -3.551727 0.000000 -0.000000
										CHANNELS 3 Xrotation Yrotation Zrotation
										JOINT RightHandIndex3
										{
											OFFSET -2.894196 0.000000 0.000000
											CHANNELS 3 Xrotation Yrotation Zrotation
											End Site
											{
												OFFSET 1.000603 2.690872 0.366626
											}
										}
									}
								}
								JOINT RightHandMiddle1
								{
									OFFSET -13.776489 0.000000 0.000000
									CHANNELS 3 Xrotation Yrotation Zrotation
									JOINT RightHandMiddle2
									{
										OFFSET -3.438232 0.000000 0.000000
										CHANNELS 3 Xrotation Yrotation Zrotation
										JOINT RightHandMiddle3
										{
											OFFSET -3.691551 0.000000 0.000000
											CHANNELS 3 Xrotation Yrotation Zrotation
											End Site
											{
												OFFSET 1.082298 3.499527 0.457670
											}
										}
									}
								}
								JOINT RightHandRing1
								{
									OFFSET -13.966164 -0.268127 -3.067488
									CHANNELS 3 Xrotation Yrotation Zrotation
									JOINT RightHandRing2
									{
										OFFSET -3.162567 0.000000 0.000000
										CHANNELS 3 Xrotation Yrotation Zrotation
										JOINT RightHandRing3
										{
											OFFSET -3.324348 0.000000 0.000000
											CHANNELS 3 Xrotation Yrotation Zrotation
											End Site
											{
												OFFSET 0.861900 3.184998 0.405154
											}
										}
									}
								}
								JOINT RightHandPinky1
								{
									OFFSET -13.131393 -0.168503 -5.746925
									CHANNELS 3 Xrotation Yrotation Zrotation
									JOINT RightHandPinky2
									{
										OFFSET -2.849182 0.000000 0.000000
										CHANNELS 3 Xrotation Yrotation Zrotation
										JOINT RightHandPinky3
										{
											OFFSET -2.805038 0.000000 0.000000
											CHANNELS 3 Xrotation Yrotation Zrotation
											End Site
											{
												OFFSET 0.882500 2.642609 0.325652
											}
										}
									}
								}
							}
							JOINT Right_Sleeve
							{
								OFFSET -6.592125 -0.646545 0.805568
								CHANNELS 3 Xrotation Yrotation Zrotation
								End Site
								{
									OFFSET 0.000179 20.275787 -0.000000
								}
							}
						}
					}
				}
				JOINT Bind_Right_JacketString
				{
					OFFSET -3.534800 11.969597 7.200700
					CHANNELS 3 Xrotation Yrotation Zrotation
					JOINT Bind_Right_JacketString1
					{
						OFFSET -0.319900 -6.102600 2.794100
						CHANNELS 3 Xrotation Yrotation Zrotation
						End Site
						{
							OFFSET 0.000000 6.719452 0.000000
						}
					}
				}
				JOINT Bind_Left_JacketString
				{
					OFFSET 2.904800 11.969597 7.200700
					CHANNELS 3 Xrotation Yrotation Zrotation
					JOINT Bind_Left_JacketString1
					{
						OFFSET 0.364800 -5.904503 3.186800
						CHANNELS 3 Xrotation Yrotation Zrotation
						End Site
						{
							OFFSET 0.000000 6.719513 0.000000
						}
					}
				}
				JOINT HairE
				{
					OFFSET 5.915200 17.612701 -11.592200
					CHANNELS 3 Xrotation Yrotation Zrotation
					JOINT HairE1
					{
						OFFSET 0.289200 -7.171898 -1.284500
						CHANNELS 3 Xrotation Yrotation Zrotation
						End Site
						{
							OFFSET 0.000000 7.291756 0.000000
						}
					}
				}
				JOINT HairF
				{
					OFFSET -0.864800 17.612701 -11.592200
					CHANNELS 3 Xrotation Yrotation Zrotation
					JOINT HairF1
					{
						OFFSET 0.000000 -14.087097 -2.127501
						CHANNELS 3 Xrotation Yrotation Zrotation
						End Site
						{
							OFFSET 0.000000 14.246841 0.000000
						}
					}
				}
				JOINT HairG
				{
					OFFSET -8.087700 17.612701 -11.592200
					CHANNELS 3 Xrotation Yrotation Zrotation
					JOINT HairG1
					{
						OFFSET -0.293600 -6.081398 -0.910100
						CHANNELS 3 Xrotation Yrotation Zrotation
						End Site
						{
							OFFSET 0.000000 6.156120 0.000000
						}
					}
				}
			}
		}
	}
	JOINT Pouch
	{
		OFFSET 0.000000 4.394501 10.847300
		CHANNELS 3 Xrotation Yrotation Zrotation
		End Site
		{
			OFFSET 0.000000 21.880577 0.000000
		}
	}
	JOINT Bag
	{
		OFFSET -13.229000 4.813004 -0.593300
		CHANNELS 3 Xrotation Yrotation Zrotation
		End Site
		{
			OFFSET 0.000000 21.880577 0.000000
		}
	}
	JOINT OccupyGuyFacialAnim_Joint
	{
		OFFSET 1.000000 -70.206398 -1.655000
		CHANNELS 3 Xrotation Yrotation Zrotation
		End Site
		{
			OFFSET 0.000000 21.880577 0.000000
		}
	}
}
MOTION
Frames: 4
Frame Time: 0.016667
-0.085109 88.158661 -1.432896 3.775302 -37.795900 3.039281 -0.000000 0.000002 0.000000 -76.718372 -17.544251 32.291707 64.817539 1.782006 7.738020 9.335686 -1.346417 2.189381 -0.000000 -0.000000 -0.000001 -0.000000 -0.000003 -0.000000 -113.575083 -42.033360 -0.081954 125.932036 20.301508 -13.169124 10.237975 -1.322031 24.192399 0.000000 0.000000 0.000000 0.000003 0.000001 -0.000001 31.623673 -4.131073 -10.283516 14.129394 0.964736 -3.082680 14.083565 0.916923 -3.297922 -8.677503 21.443468 -12.816592 -25.381079 13.620608 5.249198 0.000001 0.000001 0.000001 0.000001 0.000001 0.000001 0.000001 0.000001 0.000001 0.000001 0.000001 0.000001 0.000001 0.000000 0.000000 0.000001 0.000001 0.000001 0.000001 0.000000 0.000000 0.000001 0.000001 0.000001 0.000001 0.000001 0.000001 11.474058 -16.374142 4.408428 -62.668802 -4.844738 -3.758214 45.767670 -24.019421 29.511137 -12.970325 31.805927 18.858164 40.109944 -15.297061 -0.360440 5.639826 28.097624 11.338692 -0.000000 0.000001 -0.000001 6.882245 2.840087 -61.140418 8.247916 7.639954 -89.897953 -0.000000 0.000002 -0.000002 -2.345508 4.688860 -62.655320 8.754122 9.897106 -87.051102 0.000001 -0.000000 -0.000003 -9.042535 10.045644 -60.766322 8.524076 9.508822 -66.893076 0.000001 0.000002 -0.000002 -17.946945 14.754966 -51.485799 8.868429 8.667056 -84.811962 -0.000000 -0.000001 0.000001 -0.000001 -0.000001 -0.000002 18.189195 24.092147 -9.603799 -33.453143 6.374206 2.980965 -41.939209 39.311130 29.275885 -2.634151 7.017180 -19.613209 -1.525708 -5.490520 13.054247 1.517235 -22.702494 -8.022590 -0.000000 -0.000001 -0.000001 1.275683 4.855666 -8.441557 0.521786 0.316516 6.397938 0.000001 -0.000003 -0.000000 0.863995 -5.171138 -11.645878 1.544694 -3.773589 21.274079 0.000001 -0.000002 -0.000003 1.777567 -11.827275 -9.453281 1.762677 -2.960313 20.651840 0.000001 0.000001 -0.000000 2.612860 -21.378200 -4.080140 5.314410 -1.204969 -0.000013 -0.000001 0.000003 -0.000003 0.000001 0.000002 -0.000002 -0.000001 0.000000 -0.000001 -0.000000 -0.000001 0.000001 -0.000001 0.000000 -0.000001 -0.000001 0.000000 -0.000001 -0.000001 0.000000 -0.000001 -0.000000 -0.000001 0.000001 -0.000001 0.000000 -0.000001 -0.000001 0.000000 -0.000001 -0.000001 0.000000 -0.000001 -0.000000 -0.000001 0.000001 -0.000000 0.000002 0.000000 -0.000000 0.000002 0.000000 -0.000000 0.000002 0.000000 
-0.081665 88.158913 -1.440570 3.801738 -37.895570 3.089896 -0.000000 0.000003 -0.000000 -76.712225 -17.528373 32.306518 64.800368 1.722176 7.708400 9.356441 -1.224556 2.095546 0.000001 0.000001 -0.000001 0.000000 0.000000 0.000001 -113.385805 -42.058351 -0.087626 125.818874 20.343741 -13.183329 10.105245 -1.334384 24.099863 0.000000 -0.000000 -0.000002 0.000003 -0.000003 0.000000 31.629582 -4.145737 -10.287839 14.124492 0.962688 -3.082694 14.081426 0.915139 -3.297781 -8.636868 21.467478 -12.828426 -25.291728 13.718662 5.212693 0.000001 0.000000 0.000000 0.000001 0.000000 0.000000 0.000001 0.000000 0.000001 0.000001 0.000000 0.000000 -0.000001 -0.000000 0.000000 0.000001 0.000000 0.000000 -0.000001 -0.000000 0.000000 0.000001 0.000000 0.000000 0.000001 0.000000 0.000000 11.372219 -16.443320 3.967058 -62.208086 -4.571394 -3.790341 45.710467 -23.896274 29.381230 -13.152821 31.668346 18.894690 40.109944 -15.297059 -0.360445 5.639824 28.097624 11.338689 -0.000000 0.000001 -0.000004 6.882249 2.840091 -61.140418 8.247919 7.639956 -89.897959 0.000002 0.000003 -0.000001 -2.345509 4.688862 -62.655320 8.754123 9.897106 -87.051102 -0.000001 -0.000002 -0.000003 -9.042538 10.045644 -60.766322 8.524076 9.508819 -66.893076 -0.000000 0.000002 -0.000003 -17.946949 14.754967 -51.485802 8.868432 8.667046 -84.811955 -0.000003 0.000000 0.000001 -0.000000 -0.000000 0.000001 18.029182 24.259182 -9.213511 -32.985538 6.584516 2.975910 -41.769779 39.073672 29.004682 -2.558815 7.327786 -19.065141 -1.525706 -5.490521 13.054250 1.517233 -22.702499 -8.022592 -0.000001 0.000000 -0.000001 1.264160 4.823512 -8.200521 0.528599 0.186464 7.355375 -0.000001 0.000001 0.000000 0.874208 -5.218022 -11.333226 1.587301 -3.878972 22.059943 -0.000000 -0.000001 0.000003 1.813561 -11.822578 -9.179916 1.792574 -3.024124 21.110296 0.000002 0.000002 0.000001 2.626235 -21.407363 -3.836566 5.351739 -1.276964 0.651228 -0.000000 0.000002 -0.000001 0.000000 0.000001 -0.000004 -0.000001 0.000001 -0.000000 -0.000000 0.000000 -0.000001 -0.000001 0.000001 -0.000000 -0.000001 0.000001 -0.000000 -0.000001 0.000001 -0.000000 -0.000000 0.000000 -0.000000 -0.000001 0.000001 -0.000000 -0.000001 0.000001 -0.000000 -0.000001 0.000001 -0.000000 -0.000000 0.000000 -0.000000 -0.000000 0.000003 -0.000000 -0.000000 0.000003 -0.000000 -0.000000 0.000003 -0.000000 
-0.079570 88.160210 -1.448480 3.829340 -37.983208 3.141944 -0.000000 0.000000 0.000000 -76.696645 -17.494802 32.311292 64.774359 1.694251 7.693796 9.290622 -1.137356 2.054758 0.000001 0.000001 -0.000002 -0.000000 0.000001 -0.000000 -113.174329 -42.078678 -0.092758 125.708962 20.412997 -13.198483 9.941560 -1.350694 23.995238 -0.000000 0.000000 -0.000000 0.000002 -0.000003 -0.000003 31.622154 -4.159585 -10.288701 14.121962 0.959993 -3.082251 14.068808 0.912811 -3.297120 -8.610281 21.493191 -12.821319 -25.195743 13.750089 5.199514 0.000003 -0.000000 -0.000001 0.000003 -0.000000 -0.000001 0.000003 -0.000000 -0.000000 0.000003 -0.000000 -0.000001 0.000000 -0.000001 -0.000001 0.000003 -0.000000 -0.000001 0.000000 -0.000001 -0.000001 0.000003 -0.000000 -0.000001 0.000003 -0.000000 -0.000001 11.267123 -16.494260 3.552181 -61.836400 -4.277155 -3.867880 45.655293 -23.778487 29.256668 -13.315561 31.475093 18.907548 40.109938 -15.297061 -0.360441 5.639829 28.097624 11.338690 -0.000000 -0.000000 -0.000001 6.882247 2.840092 -61.140411 8.247919 7.639960 -89.897959 0.000002 -0.000003 0.000001 -2.345509 4.688865 -62.655320 8.754124 9.897106 -87.051102 0.000002 -0.000001 -0.000001 -9.042536 10.045649 -60.766322 8.524072 9.508822 -66.893076 0.000000 0.000002 -0.000001 -17.946947 14.754969 -51.485795 8.868433 8.667051 -84.811962 -0.000002 -0.000001 -0.000001 0.000002 -0.000001 -0.000001 17.871450 24.380043 -8.840629 -32.509672 6.730321 2.966669 -41.608071 38.845140 28.745678 -2.194473 7.735457 -18.572654 -1.525707 -5.490523 13.054247 1.517235 -22.702499 -8.022585 0.000000 -0.000001 -0.000002 1.252743 4.791382 -7.959519 0.537556 0.056551 8.312893 -0.000002 -0.000002 -0.000002 0.884685 -5.264778 -11.020551 1.631339 -3.983811 22.846015 -0.000001 -0.000003 0.000001 1.849493 -11.817702 -8.906585 1.822944 -3.087677 21.568785 -0.000000 -0.000001 -0.000001 2.639521 -21.436422 -3.593007 5.390299 -1.348507 1.586690 -0.000003 0.000001 -0.000001 -0.000000 0.000000 -0.000001 -0.000000 0.000001 -0.000000 -0.000000 0.000000 0.000001 -0.000000 0.000001 -0.000000 -0.000000 0.000001 -0.000000 -0.000000 0.000001 -0.000000 -0.000000 0.000000 0.000002 -0.000000 0.000001 -0.000000 -0.000000 0.000001 -0.000000 -0.000000 0.000001 -0.000000 -0.000000 0.000000 0.000002 -0.000000 0.000000 0.000000 -0.000000 0.000000 0.000000 -0.000000 0.000000 0.000000 
-0.078795 88.161125 -1.454906 3.857896 -38.049065 3.191985 0.000000 -0.000002 0.000000 -76.669208 -17.465770 32.319905 64.721985 1.680139 7.687872 9.278727 -1.091037 1.979152 -0.000000 0.000000 -0.000002 -0.000000 -0.000000 -0.000000 -112.956063 -42.089292 -0.088316 125.588355 20.448015 -13.213217 9.788099 -1.370903 23.944722 -0.000000 -0.000000 -0.000004 0.000002 0.000001 -0.000000 31.609241 -4.171687 -10.286748 14.106484 0.954769 -3.081000 14.049169 0.908810 -3.295741 -8.563389 21.515695 -12.819792 -25.070498 13.794743 5.150472 0.000001 0.000000 -0.000000 0.000001 0.000000 -0.000000 0.000001 0.000000 0.000000 0.000001 0.000000 -0.000000 0.000001 0.000000 -0.000000 0.000001 0.000000 -0.000000 0.000001 0.000000 -0.000000 0.000001 0.000000 -0.000000 0.000001 0.000000 -0.000000 11.178849 -16.526071 3.162663 -61.569456 -3.861269 -3.799276 45.619732 -23.701731 29.176939 -13.445438 31.206380 18.883643 40.109938 -15.297064 -0.360442 5.639828 28.097621 11.338689 -0.000002 -0.000000 0.000001 6.882249 2.840088 -61.140418 8.247917 7.639952 -89.897959 -0.000004 0.000001 0.000000 -2.345505 4.688860 -62.655320 8.754121 9.897109 -87.051102 -0.000001 -0.000001 -0.000001 -9.042534 10.045644 -60.766322 8.524070 9.508820 -66.893076 0.000003 0.000001 -0.000001 -17.946947 14.754966 -51.485792 8.868431 8.667055 -84.811962 -0.000001 0.000001 0.000003 0.000003 0.000001 0.000003 17.715216 24.468459 -8.495859 -32.128879 6.751245 2.910638 -41.451414 38.621400 28.494028 -1.622675 7.766571 -18.155252 -1.525709 -5.490521 13.054250 1.517230 -22.702499 -8.022587 0.000000 -0.000001 0.000003 1.241613 4.759415 -7.720679 0.548546 -0.072026 9.261820 0.000001 0.000002 -0.000003 0.895319 -5.311138 -10.710613 1.676466 -4.087034 23.625238 0.000000 0.000002 -0.000000 1.885094 -11.812657 -8.635646 1.853580 -3.150468 22.023190 0.000002 -0.000000 -0.000000 2.652753 -21.465162 -3.351511 5.429579 -1.418817 2.513891 -0.000001 0.000001 -0.000001 -0.000001 0.000000 0.000002 -0.000000 0.000000 0.000000 -0.000001 0.000003 -0.000003 -0.000000 0.000000 0.000000 -0.000000 0.000000 0.000000 -0.000000 0.000000 0.000000 -0.000001 0.000003 -0.000003 -0.000000 0.000000 0.000000 -0.000000 0.000000 0.000000 -0.000000 0.000000 0.000000 -0.000001 0.000003 -0.000003 0.000000 -0.000002 0.000000 0.000000 -0.000002 0.000000 0.000000 -0.000002 0.000000 
